<?xml version="1.0" encoding="utf-8"?>
<!-- Generator: Adobe Illustrator 16.0.0, SVG Export Plug-In . SVG Version: 6.00 Build 0)  -->
<!DOCTYPE svg PUBLIC "-//W3C//DTD SVG 1.1//EN" "http://www.w3.org/Graphics/SVG/1.1/DTD/svg11.dtd">
<svg version="1.1" id="Layer_1" xmlns="http://www.w3.org/2000/svg" xmlns:xlink="http://www.w3.org/1999/xlink" x="0px" y="0px"
	 width="360px" height="106.5px" viewBox="0 0 360 106.5" enable-background="new 0 0 360 106.5" xml:space="preserve">
<g>
	<path fill="#FFFFFF" d="M106.871,130.506c0-51.421,0-102.84,0-154.292c49.521,0,99.053,0,148.635,0c0,51.411,0,102.851,0,154.292
		C205.989,130.506,156.437,130.506,106.871,130.506z M178.429,102.798c0-32.614,0-65.065,0-97.853
		c-17.852,1.854-31.604,10.18-39.725,25.928c-9.809,19.025-7.836,37.653,5.629,54.436
		C152.926,96.021,164.593,101.566,178.429,102.798z M183.376,4.872c0,32.684,0,65.287,0,97.887
		c5.907,0.069,18.107-1.631,29.187-10.647c10.045-8.176,16.25-18.875,17.879-31.697c1.446-11.38-0.625-22.329-6.908-32.217
		C214.215,13.529,200.705,6.063,183.376,4.872z"/>
	<path fill-rule="evenodd" clip-rule="evenodd" fill="#F2898A" d="M178.429,102.798c-13.836-1.231-25.503-6.776-34.096-17.489
		c-13.465-16.782-15.438-35.41-5.629-54.436c8.12-15.748,21.873-24.074,39.725-25.928
		C178.429,37.733,178.429,70.184,178.429,102.798z M171.283,19.173c0-2.693,0-5.328,0-8.241c-7.886,1.647-14.403,5.5-20.032,10.799
		c-7.758,7.301-12.477,16.448-13.459,26.977c-2.738,29.343,18.893,45.244,33.605,48.128c0-2.483,0.041-4.945-0.042-7.401
		c-0.013-0.411-0.49-0.966-0.896-1.173c-0.981-0.499-2.037-0.859-3.078-1.227c-4.12-1.454-7.568-4.026-10.644-6.974
		c-2.198-2.108-3.889-4.762-5.715-7.239c-2.796-3.789-4.229-8.25-4.882-12.758c-0.41-2.863-1.07-5.807-0.402-8.937
		c0.65-3.043,0.859-6.175,1.926-9.169c1.537-4.313,3.697-8.269,6.715-11.676c1.785-2.015,3.884-3.777,5.986-5.477
		C163.574,22.211,167.247,20.439,171.283,19.173z"/>
	<path fill-rule="evenodd" clip-rule="evenodd" fill="#F28A8B" d="M183.376,4.872c17.329,1.192,30.839,8.658,40.157,23.325
		c6.283,9.889,8.354,20.837,6.908,32.217c-1.629,12.822-7.834,23.521-17.879,31.697c-11.079,9.017-23.279,10.717-29.187,10.647
		C183.376,70.158,183.376,37.555,183.376,4.872z M190.478,97.316c13.359-2.757,23.642-9.816,29.846-21.428
		c9.63-18.025,7.787-35.593-5.278-51.435c-6.26-7.59-14.71-12.021-24.567-14.031C190.478,39.451,190.478,68.156,190.478,97.316z"/>
	<path fill-rule="evenodd" clip-rule="evenodd" fill="#FFFBFA" d="M171.283,19.173c-4.036,1.267-7.709,3.039-10.917,5.633
		c-2.103,1.699-4.201,3.462-5.986,5.477c-3.018,3.407-5.178,7.363-6.715,11.676c-1.066,2.994-1.275,6.125-1.926,9.169
		c-0.668,3.13-0.008,6.074,0.402,8.937c0.652,4.508,2.086,8.969,4.882,12.758c1.826,2.478,3.517,5.131,5.715,7.239
		c3.075,2.947,6.523,5.52,10.644,6.974c1.041,0.367,2.097,0.728,3.078,1.227c0.405,0.207,0.883,0.762,0.896,1.173
		c0.083,2.456,0.042,4.918,0.042,7.401c-14.713-2.885-36.344-18.785-33.605-48.128c0.982-10.528,5.701-19.675,13.459-26.977
		c5.629-5.299,12.146-9.152,20.032-10.799C171.283,13.845,171.283,16.479,171.283,19.173z"/>
	<path fill-rule="evenodd" clip-rule="evenodd" fill="#FFFAF9" d="M190.478,97.316c0-29.16,0-57.865,0-86.893
		c9.857,2.01,18.308,6.441,24.567,14.031c13.065,15.841,14.908,33.409,5.278,51.435C214.119,87.5,203.837,94.56,190.478,97.316z
		 M198.739,21.696c0,21.527,0,42.748,0,64.261c11.935-6.796,18.646-16.935,19.3-30.203
		C218.777,40.827,211.746,29.589,198.739,21.696z"/>
	<path fill-rule="evenodd" clip-rule="evenodd" fill="#F2898A" d="M198.739,21.696c13.007,7.893,20.038,19.131,19.3,34.058
		c-0.653,13.269-7.365,23.407-19.3,30.203C198.739,64.443,198.739,43.223,198.739,21.696z"/>
</g>
<text transform="matrix(1 0 0 1 16.3813 69.7109)" fill="#F48887" font-family="'AmaticSC-Bold'" font-size="50">Colleen </text>
<text transform="matrix(1 0 0 1 234.8721 71.709)" fill="#F48887" font-family="'AmaticSC-Bold'" font-size="50">Duong</text>
</svg>
