<?xml version="1.0" encoding="utf-8"?>
<!-- Generator: Adobe Illustrator 16.0.0, SVG Export Plug-In . SVG Version: 6.00 Build 0)  -->
<!DOCTYPE svg PUBLIC "-//W3C//DTD SVG 1.1//EN" "http://www.w3.org/Graphics/SVG/1.1/DTD/svg11.dtd">
<svg version="1.1" id="Layer_1" xmlns="http://www.w3.org/2000/svg" xmlns:xlink="http://www.w3.org/1999/xlink" x="0px" y="0px"
	 width="360px" height="106.5px" viewBox="0 0 360 106.5" enable-background="new 0 0 360 106.5" xml:space="preserve">
<g>
	<path fill="#F2898A" d="M178.429,102.798c-13.836-1.231-25.503-6.776-34.096-17.489c-13.465-16.781-15.438-35.41-5.629-54.436
		c8.12-15.748,21.873-24.074,39.725-25.928C178.429,37.733,178.429,70.184,178.429,102.798z M171.283,19.173
		c0-2.693,0-5.328,0-8.241c-7.886,1.647-14.403,5.5-20.032,10.799c-7.758,7.301-12.477,16.448-13.459,26.977
		c-2.738,29.343,18.893,45.244,33.605,48.128c0-2.482,0.041-4.945-0.042-7.4c-0.013-0.412-0.49-0.967-0.896-1.174
		c-0.981-0.498-2.037-0.859-3.078-1.227c-4.12-1.454-7.568-4.026-10.644-6.975c-2.198-2.107-3.889-4.762-5.715-7.238
		c-2.796-3.789-4.229-8.25-4.882-12.758c-0.41-2.863-1.07-5.808-0.402-8.938c0.65-3.043,0.859-6.175,1.926-9.169
		c1.537-4.313,3.697-8.269,6.715-11.676c1.785-2.015,3.884-3.777,5.986-5.477C163.574,22.211,167.247,20.439,171.283,19.173z"/>
	<path fill="#F28A8B" d="M183.376,4.872c17.329,1.192,30.839,8.658,40.157,23.325c6.283,9.889,8.354,20.837,6.908,32.217
		c-1.629,12.822-7.834,23.521-17.879,31.697c-11.08,9.017-23.279,10.717-29.188,10.646C183.376,70.158,183.376,37.555,183.376,4.872
		z M190.479,97.316c13.358-2.758,23.642-9.816,29.846-21.428c9.63-18.025,7.787-35.594-5.278-51.436
		c-6.26-7.59-14.71-12.021-24.567-14.031C190.479,39.451,190.479,68.156,190.479,97.316z"/>
	<path fill="#F2898A" d="M198.738,21.696c13.008,7.893,20.039,19.131,19.301,34.058c-0.652,13.27-7.365,23.407-19.301,30.203
		C198.738,64.443,198.738,43.223,198.738,21.696z"/>
</g>
<text transform="matrix(1 0 0 1 16.3809 69.7109)" fill="#F48887" font-family="'AmaticSC-Bold'" font-size="50">Colleen </text>
<text transform="matrix(1 0 0 1 234.8721 71.709)" fill="#F48887" font-family="'AmaticSC-Bold'" font-size="50">Duong</text>
</svg>
